<?xml version="1.0" encoding="utf-8"?>
<!-- Generator: Adobe Illustrator 22.0.1, SVG Export Plug-In . SVG Version: 6.00 Build 0)  -->
<svg version="1.1" id="Layer_1" xmlns="http://www.w3.org/2000/svg" xmlns:xlink="http://www.w3.org/1999/xlink" x="0px" y="0px"
	 viewBox="0 0 19.8 29.2" style="enable-background:new 0 0 19.8 29.2;" xml:space="preserve">
<style type="text/css">
	.st0{fill:#231F20;}
	.st1{fill:#E2BF9C;}
	.st2{fill:#F2D1AC;}
	.st3{clip-path:url(#SVGID_2_);fill:#C09A80;}
	.st4{fill:#D3A789;}
	.st5{fill:#C09A80;}
	.st6{fill:#E0B89B;}
	.st7{fill:#F9F9FA;}
	.st8{fill:#41130D;}
	.st9{fill:#976339;}
	.st10{fill:#0F0F0F;}
	.st11{fill:#19191A;}
</style>
<path class="st0" d="M10.6,17.2C10.2,17,9.5,17,9,17l0,0c0,0-0.1,0-0.2,0c-0.1,0-0.2,0-0.2,0l0,0c-0.5,0-1.2,0-1.6,0.2
	c-0.7,0.2-0.9,1-1.6,1.6c0,0,1-0.1,1.7-0.3c0.6-0.2,0.7-0.4,1.6-0.7c0.1,0,0.2-0.1,0.2-0.1c0.1,0,0.1,0.1,0.2,0.1
	c0.9,0.3,1,0.5,1.6,0.7s1.7,0.3,1.7,0.3C11.5,18.2,11.3,17.4,10.6,17.2z"/>
<g>
	<g>
		<path class="st1" d="M10.2,17.8v11.3H4c-0.1,0-0.2-0.1-0.2-0.1c0-4.7,2.2-6,3.3-6.4c0.3-0.1,0.5-0.1,0.5-0.1
			c0.4,0,0.6-0.5,0.8-1.2c0-0.1,0-0.2,0.1-0.4c0-0.2,0.1-0.4,0.1-0.7c0-0.1,0-0.3,0-0.4c0.1-0.7,0.1-1.5,0.1-2.2
			C8.7,17.7,9.5,17.8,10.2,17.8"/>
		<path class="st2" d="M16.4,29.1c0,0-0.1,0-0.1,0.1h-6.2V17.8l0,0c0.7,0,1.5-0.1,1.5-0.1c0,0.7,0,1.5,0.1,2.2c0,0.1,0,0.3,0,0.4
			c0,0.2,0,0.5,0.1,0.7l0,0c0,0.1,0,0.2,0.1,0.3c0.2,0.8,0.4,1.3,0.8,1.3c0,0,0.3,0,0.8,0.2C14.5,23.3,16.4,24.8,16.4,29.1"/>
		<g>
			<g>
				<defs>
					<rect id="SVGID_1_" x="8.4" y="19.9" width="3.4" height="2"/>
				</defs>
				<clipPath id="SVGID_2_">
					<use xlink:href="#SVGID_1_"  style="overflow:visible;"/>
				</clipPath>
				<path class="st3" d="M11.8,21L11.8,21c-0.2,0.2-0.7,0.9-1.7,0.9l0,0c-1,0-1.6-0.7-1.7-0.9c0-0.2,0.1-0.4,0.1-0.7
					c0-0.1,0-0.3,0-0.4c0.5,0.1,1,0.2,1.6,0.2l0,0c0.6,0,1.1-0.1,1.6-0.2c0,0.1,0,0.3,0,0.4C11.7,20.5,11.8,20.8,11.8,21"/>
			</g>
		</g>
		<path class="st4" d="M10,4.8c-6.5,0-6.6,5.5-6.3,9C3.2,13,1.9,13.3,2,14.6c0.1,1.3,2,2,1.9,1.8c0.5,2.9,3.6,4.6,6,4.6l0,0L10,4.8
			L10,4.8"/>
		<path class="st5" d="M2.4,14.1c0.3-0.5,0.8-0.3,0.9-0.2c0.1,0.1,0.2,0.3,0.2,0.6c0,0.2-0.2,0.2-0.2,0.4c0,0.3,0.2,0.3,0.3,0.4
			c0.1,0.1,0.2,0.1,0.2,0.2c0,0.1,0.1,0.3,0,0.4c-0.1,0.2-0.4,0-0.6-0.1c-0.1-0.1-0.6-0.4-0.7-0.5C2.4,15,2.2,14.4,2.4,14.1"/>
		<path class="st6" d="M10,4.8c6.5,0,6.6,5.5,6.3,9c0.4-0.8,1.8-0.6,1.7,0.8c-0.1,1.3-2,2-1.9,1.8c-0.5,2.9-3.6,4.6-6,4.6l0,0
			L10,4.8L10,4.8"/>
		<path class="st5" d="M17.5,14.1c-0.3-0.5-0.8-0.3-0.9-0.2s-0.2,0.3-0.2,0.6c0,0.2,0.2,0.2,0.2,0.4c0,0.3-0.2,0.3-0.3,0.4
			c-0.1,0.1-0.2,0.1-0.2,0.2c0,0.1-0.1,0.3,0,0.4c0,0.2,0.4,0,0.6-0.1c0.1-0.1,0.6-0.4,0.7-0.5C17.6,15,17.7,14.4,17.5,14.1"/>
		<path class="st1" d="M10.1,6.3C8,6.3,6.4,6.9,5.5,8.1c-1.4,1.7-1.3,4.4-0.8,6.3C4.8,15,4.9,16.5,5,17.1c0.5,2.6,3.3,3.9,5.1,3.9
			l0,0V6.3C10.2,6.3,10.2,6.3,10.1,6.3"/>
		<path class="st2" d="M14.7,8.2c-0.9-1.2-2.5-1.8-4.6-1.9V21c2.1,0,4.6-1.5,5.1-3.9c0.1-0.6,0.2-2.1,0.3-2.7
			C16,12.6,16,10,14.7,8.2"/>
		<path class="st7" d="M16.6,29.1c0,0-0.1,0-0.1,0.1H3.9c-0.1,0-0.2-0.1-0.2-0.1c0-4.8,2.2-6.1,3.3-6.5c0.6,0.3,1.6,0.8,1.9,0.9
			c0.3,0.1,0.7,0.4,1.2,0.4s1-0.3,1.7-0.5c0.6-0.2,1.2-0.5,1.6-0.7C14.7,23.2,16.6,24.7,16.6,29.1"/>
		<path class="st8" d="M15,29.2H5.1c0-0.5,0.1-1.4,0-2.5v-0.2c0-0.1,0-0.2,0-0.3s0-0.1,0-0.2c0-0.5-0.1-1-0.2-1.6
			c0.3-0.4,0.6-0.8,0.9-1l0.1-0.1c0.4-0.3,0.8-0.5,1.1-0.6c0.1,0,0.1,0,0.2-0.1c0.2-0.1,0.4-0.1,0.4-0.1c0.1,0,0.2,0,0.3-0.1l0,0
			L8,22.2c0,0,0,0,0.1,0.1c0.1,0.3,1.3,1.2,2.1,2c0.8-0.8,2-1.7,2.1-2c0-0.1,0-0.1,0.1-0.1l0.1,0.1l0,0c0.1,0.1,0.2,0.1,0.3,0.1
			c0,0,0.1,0,0.3,0.1c0,0,0.1,0,0.2,0.1c0.3,0.1,0.7,0.3,1.1,0.6c0,0,0.1,0,0.1,0.1c0.3,0.3,0.6,0.6,0.9,1C15.1,24.8,15,25.4,15,26
			c0,0.1,0,0.1,0,0.2c0,0.1,0,0.1,0,0.2v0.2C15,27.8,15,28.7,15,29.2"/>
		<polygon class="st9" points="7.6,25.1 7.6,25.1 7.6,25.1 6.9,24 6.3,23 5.7,24 5.1,25.1 5.1,25.1 5.1,25.1 5.1,25.1 5.1,25.1 
			5.7,26.2 6.3,27.3 6.9,26.2 7.6,25.1 		"/>
		<polygon class="st9" points="10.1,25.1 10.1,25.1 10.1,25.1 9.5,24 8.8,23 8.2,24 7.6,25.1 7.6,25.1 7.6,25.1 7.6,25.1 7.6,25.1 
			8.2,26.2 8.8,27.3 9.5,26.2 10.1,25.1 		"/>
		<polygon class="st9" points="12.6,25.1 12.6,25.1 12.6,25.1 12,24 11.3,23 10.7,24 10.1,25.1 10.1,25.1 10.1,25.1 10.1,25.1 
			10.1,25.1 10.7,26.2 11.3,27.3 12,26.2 12.6,25.1 		"/>
		<polygon class="st9" points="15.1,25.1 15.1,25.1 15.1,25.1 14.5,24 13.9,23 13.2,24 12.6,25.1 12.6,25.1 12.6,25.1 12.6,25.1 
			12.6,25.1 13.2,26.2 13.9,27.3 14.5,26.2 15.1,25.1 		"/>
		<polygon class="st9" points="7.4,29.2 5.2,29.2 5.7,28.4 6.3,27.3 6.9,28.4 		"/>
		<polygon class="st9" points="9.9,29.2 7.8,29.2 8.2,28.4 8.8,27.3 9.4,28.4 		"/>
		<polygon class="st9" points="12.4,29.2 10.3,29.2 10.7,28.4 11.3,27.3 12,28.4 		"/>
		<polygon class="st9" points="14.9,29.2 12.8,29.2 13.2,28.4 13.9,27.3 14.5,28.4 		"/>
		<path class="st7" d="M12.5,22c-0.1-0.2-0.3-0.5-0.4-0.7c-0.1-0.3-0.3-0.6-0.3-0.6c0,0.3-0.5,1.6-0.5,1.6s-1.5,1.6-1.2,1.6
			c0.2,0.1,1.3,0.6,1.6,0.9C12,25.2,12,25.5,12,25C12.2,24.6,12.8,22.6,12.5,22"/>
		<path class="st7" d="M8.9,22.3c0,0-0.5-1.3-0.5-1.6c0,0-0.1,0.3-0.3,0.6C8,21.5,7.8,21.7,7.7,22c-0.2,0.6,0.3,2.7,0.4,3.1
			c0.1,0.5,0,0.2,0.3-0.2C8.7,24.5,9.8,24,10,24C10.3,23.8,8.9,22.3,8.9,22.3"/>
		<path class="st10" d="M15.4,4.5c-1.5-1.5-3.6-2.3-3.6-2.3l0.6,0.6c-0.4-0.3-1-0.7-2.1-1c-1.5-0.5-2.5,0-2.5,0s0.8,0,1.2,0.3
			C8.6,2,7.9,1.9,6.8,2.4c-2.2,0.9-2.1,2.5-3.6,3s-2-0.1-2-0.1s0.7,1.1,1.9,1.1c0.2,0,0.2,0,0.2,0S2.9,7.6,2.8,8.5
			C2.6,9.3,2.9,9.9,3,11.7c0.1,1.5,0.5,0.7,0.9,1.8c0.2,0.4,0.2,0.8,0.2,0.8c0.2,0,0.6-0.9,0.3-2.5c-0.2-1,0.8-5,3.4-4.2
			C8,7.7,8.1,7.7,8.3,7.8c0.4,0.2,3.1,1.5,3.1,4.5c0,0,3.7-0.7,4.2-2.9c0.2,0.6,0.2,1.3,0.1,2.1c-0.2,2.7,0.2,2.6,0.2,2.6
			c0.1,0,0-0.7,0.4-1.2s1.1-2.1,1.1-3.8C17.4,7.5,16.9,6.1,15.4,4.5z"/>
		<path class="st11" d="M16.3,13c0-0.1-0.7-0.2-1.6-0.3c-0.8-0.1-2,0-2.5,0c-0.2,0-0.6,0.1-0.9,0.2c-0.4,0.1-0.8,0.2-0.9,0.3
			c-0.2,0-0.3,0-0.4,0l0,0l0,0l0,0l0,0c-0.1,0-0.3,0-0.4,0c-0.2,0-0.6-0.2-0.9-0.3c-0.4-0.1-0.7-0.2-0.9-0.2c-0.5-0.1-1.7-0.1-2.5,0
			c-0.9,0.1-1.6,0.2-1.6,0.3c0,0-0.1,0.7,0,0.8c0,0.1,0.2,0.2,0.3,0.4s0.3,1.9,0.9,2.3c0.9,0.7,4,0.8,4.5-1.9c0-0.3,0.1-0.6,0.3-0.6
			c0.1,0,0.2,0,0.3,0s0.2,0,0.3,0c0.2,0.1,0.3,0.3,0.3,0.7c0.5,2.7,3.6,2.7,4.5,1.9c0.6-0.5,0.8-2.1,0.9-2.3
			c0.1-0.2,0.3-0.4,0.4-0.4C16.4,13.7,16.3,13.1,16.3,13z M8.9,14.9c-0.5,2.1-2.8,1.9-3.3,1.7c-0.2-0.1-1-0.3-1.1-2.1
			c-0.1-1.2,0.5-1.3,1.3-1.4c0.7-0.1,1.3,0,1.7,0c0.4,0,1.3,0.2,1.4,0.6C8.9,14,9,14.4,8.9,14.9z M15.5,14.5c-0.1,1.7-0.8,2-1.1,2.1
			c-0.6,0.2-2.9,0.4-3.3-1.7c-0.1-0.5-0.1-0.8,0-1.2c0.1-0.3,1-0.5,1.4-0.6s1-0.1,1.7,0C15,13.2,15.5,13.3,15.5,14.5z"/>
	</g>
	<path class="st0" d="M11.6,17.7c-0.3-0.1-0.9-0.1-1.3-0.1l0,0c0,0-0.1,0-0.2,0c-0.1,0-0.2,0-0.2,0l0,0c-0.4,0-1,0-1.3,0.1
		c-0.5,0.2-0.7,0.8-1.3,1.3c0,0,0.8-0.1,1.3-0.3c0.5-0.2,0.6-0.4,1.3-0.6c0.1,0,0.1,0,0.2-0.1c0.1,0,0.1,0,0.2,0.1
		c0.7,0.2,0.8,0.4,1.3,0.6s1.3,0.3,1.3,0.3C12.3,18.6,12.1,17.9,11.6,17.7z"/>
</g>
</svg>
