<?xml version="1.0" encoding="utf-8"?>
<!-- Generator: Adobe Illustrator 22.0.1, SVG Export Plug-In . SVG Version: 6.00 Build 0)  -->
<svg version="1.1" id="Layer_1" xmlns="http://www.w3.org/2000/svg" xmlns:xlink="http://www.w3.org/1999/xlink" x="0px" y="0px"
	 viewBox="0 0 19.8 29.2" style="enable-background:new 0 0 19.8 29.2;" xml:space="preserve">
<style type="text/css">
	.st0{fill:#5EA7AF;}
	.st1{fill:#F6F0D7;}
	.st2{fill:#7E6052;}
	.st3{fill:#54C2BA;}
	.st4{fill:#4AC2EF;}
	.st5{fill:#D7878E;}
	.st6{fill:#8967AC;}
	.st7{fill:#171518;}
	.st8{fill:#965458;}
	.st9{fill:#E1BF9C;}
	.st10{fill:#F2D1AC;}
	.st11{opacity:0.7;fill:#C09A80;}
	.st12{fill:#D3A789;}
	.st13{fill:#C09A80;}
	.st14{fill:#E0B89B;}
	.st15{fill:#0D0D0D;}
	.st16{fill:#101010;}
	.st17{fill:#FFFFFF;}
	.st18{fill:#191919;}
	.st19{fill:#674E21;}
	.st20{fill:#282844;}
	.st21{fill:#1E2859;}
	.st22{fill:#494A7D;}
	.st23{fill:#1F1F33;}
	.st24{fill:#473417;}
	.st25{fill:#432612;}
	.st26{fill:#633719;}
	.st27{fill:none;}
	.st28{fill:#A2C15F;}
	.st29{fill:#070707;}
	.st30{fill:#31B44A;}
	.st31{fill:#515251;}
	.st32{fill:#5B131A;}
	.st33{fill:#937D5A;}
	.st34{fill:#C6696E;}
	.st35{fill:#D87373;}
	.st36{fill:#AD956A;}
	.st37{fill:#833694;}
	.st38{fill:#C0C0CE;}
	.st39{fill:#DFDFEF;}
	.st40{fill:#9E1D24;}
	.st41{fill:#BC5E67;}
	.st42{fill:#2A222B;}
	.st43{fill:#413342;}
	.st44{fill:#93D5D8;}
	.st45{fill:#580D0D;}
	.st46{fill:#DCC724;}
	.st47{fill:#3F403F;}
	.st48{fill:#311110;}
	.st49{fill:#550F0E;}
	.st50{fill:#1E1E1E;}
	.st51{fill:#9B9A9A;}
	.st52{fill:#444545;}
	.st53{fill:#1B1A1B;}
	.st54{fill:#F9F9FA;}
	.st55{fill:#AD9962;}
	.st56{fill:#7C6C43;}
	.st57{opacity:0.5;fill:#666766;}
	.st58{opacity:0.5;fill:#C9C9C9;}
	.st59{fill:#050606;}
	.st60{fill:#35251D;}
	.st61{fill:#FEF5F0;}
	.st62{fill:#341E10;}
	.st63{fill:#321D10;}
	.st64{fill:#8D181B;}
	.st65{fill:#0F0F0F;}
	.st66{fill:#DEDDDD;}
	.st67{fill:#C52026;}
	.st68{fill:#ABC88D;}
	.st69{fill:#F0EBBE;}
	.st70{fill:#5C4C52;}
	.st71{fill:#8EBEB4;}
	.st72{fill:#EE837C;}
	.st73{fill:#BE1E2D;}
	.st74{fill:#E6E7E8;}
	.st75{fill:#7271B5;}
	.st76{fill:#293117;}
	.st77{fill:#ED1C24;}
	.st78{fill:#5AADC5;}
	.st79{fill:#9B5458;}
	.st80{fill:#24120B;}
	.st81{fill:#2C0F0F;}
	.st82{fill:#C66368;}
	.st83{fill:#422110;}
	.st84{fill:#414360;}
	.st85{fill:#442B19;}
	.st86{fill:#2D1A10;}
	.st87{fill:url(#SVGID_1_);}
	.st88{fill:none;stroke:#FFFFFF;stroke-width:0.25;stroke-miterlimit:10;}
	.st89{fill:#0B0B0B;}
	.st90{fill:#151515;}
	.st91{fill:#59BA47;}
	.st92{fill:#27160F;}
	.st93{fill:#171617;}
	.st94{fill:#187D3E;}
	.st95{fill:#6ABD45;}
	.st96{fill:#898989;}
	.st97{fill:#844A4A;}
	.st98{fill:#3A2442;}
	.st99{fill:#563760;}
	.st100{fill:#5B2F2F;}
	.st101{fill:#FAFBEE;}
	.st102{fill:#261A0F;}
	.st103{fill:#462E13;}
	.st104{fill:#3D1F0F;}
	.st105{fill:#4E2715;}
	.st106{fill:#4E2815;}
	.st107{fill:#424380;}
	.st108{fill:#FEF5F5;}
	.st109{fill:#686868;}
	.st110{fill:#2F325B;}
	.st111{fill:#ECBF1D;}
	.st112{fill:#372012;}
	.st113{fill:#351F13;}
	.st114{fill:#BC9F6C;}
	.st115{fill:#F9D78C;}
	.st116{fill:#601212;}
	.st117{fill:#3B1214;}
	.st118{fill:#710F11;}
	.st119{fill:#F7F7F7;}
	.st120{fill:#262525;}
	.st121{fill:#E6E8E7;}
	.st122{fill:#580C13;}
	.st123{fill:#0C1216;}
	.st124{fill:#9A1B1F;}
	.st125{fill:none;stroke:#F4CB13;stroke-width:0.25;stroke-miterlimit:10;}
	.st126{fill:#2E3393;}
	.st127{fill:#6C5F27;}
	.st128{fill:#0B253A;}
	.st129{fill:#0C1F2C;}
	.st130{fill:none;stroke:#FAC013;stroke-width:0.75;stroke-miterlimit:10;}
	.st131{fill:#482539;}
	.st132{fill:#D65641;}
	.st133{fill:#D04D30;}
	.st134{fill:#D69CC6;}
	.st135{fill:#202028;}
	.st136{fill:#484748;}
	.st137{opacity:0.8;fill:#070808;}
	.st138{fill:#FEC20F;}
	.st139{opacity:0.3;fill:#2C0F0F;}
	.st140{fill:#636464;}
	.st141{fill:#473325;}
	.st142{fill:#915130;}
	.st143{fill:#514731;}
	.st144{fill:#3B4F42;}
	.st145{fill:#751D23;}
	.st146{fill:#6C3415;}
	.st147{fill:#070808;}
	.st148{fill:#319E71;}
	.st149{fill:#379DA5;}
	.st150{fill:#8C3D1E;}
	.st151{fill:#35853F;}
	.st152{fill:#2B1F17;}
	.st153{fill:none;stroke:#231F20;stroke-width:0.5;stroke-miterlimit:10;}
	.st154{fill:#DAE3DF;}
	.st155{fill:#463944;}
	.st156{fill:#15151A;}
	.st157{fill:#111111;}
	.st158{fill:#6CC2E9;}
	.st159{fill:#E8AFAE;}
	.st160{fill:#D7C591;}
	.st161{fill:#416D41;}
	.st162{fill:#3A643A;}
	.st163{fill:#2C4C2B;}
	.st164{fill:#EFEFEF;}
	.st165{fill:#E05F7A;}
	.st166{fill:url(#SVGID_2_);}
	.st167{fill:url(#SVGID_3_);}
	.st168{fill:#4D4B4B;}
	.st169{fill:#1D2F3F;}
	.st170{fill:#867096;}
	.st171{fill:#231F20;}
	.st172{fill:#3A2817;}
	.st173{fill:#D7DF23;}
	.st174{fill:#39B54A;}
	.st175{clip-path:url(#SVGID_5_);fill:#009444;}
	.st176{fill:#8DC63F;}
	.st177{fill:#3B4D81;}
	.st178{fill:#E2BF9C;}
	.st179{clip-path:url(#SVGID_11_);fill:#C09A80;}
	.st180{fill:#C7696E;}
	.st181{clip-path:url(#SVGID_13_);fill:#C09A80;}
	.st182{clip-path:url(#SVGID_15_);fill:#C09A80;}
	.st183{clip-path:url(#SVGID_17_);fill:#C09A80;}
	.st184{clip-path:url(#SVGID_19_);fill:#C09A80;}
	.st185{fill:#2E3084;}
	.st186{clip-path:url(#SVGID_21_);fill:#C09A80;}
	.st187{fill:#232323;}
	.st188{fill:#0E0E10;}
	.st189{fill:#4C4C4C;}
	.st190{fill:#404040;}
	.st191{clip-path:url(#SVGID_23_);fill:#C09A80;}
	.st192{fill:#4E1223;}
	.st193{fill:#006838;}
	.st194{fill:#939598;}
	.st195{clip-path:url(#SVGID_25_);fill:#C09A80;}
	.st196{fill:#7F4C50;}
	.st197{fill:#DDDDDD;}
	.st198{fill:#BB9479;}
	.st199{fill:#422326;}
	.st200{fill:#5B3638;}
	.st201{fill:#4A494A;}
	.st202{fill:#3D3D3D;}
	.st203{fill:#2B0F0F;}
	.st204{fill:#D1D3D4;}
	.st205{fill:#BCBEC0;}
	.st206{fill:#A7A9AC;}
	.st207{fill:#5E5E5E;}
	.st208{fill:#5D3675;}
	.st209{fill:#B067A6;}
	.st210{fill:#4A484A;}
	.st211{clip-path:url(#SVGID_27_);fill:#C09A80;}
	.st212{fill:#E17EA0;}
	.st213{clip-path:url(#SVGID_29_);fill:#C09A80;}
	.st214{fill:#434B68;}
	.st215{fill:#E0E0E0;}
	.st216{fill:#7B532D;}
	.st217{clip-path:url(#SVGID_31_);fill:#C09A80;}
	.st218{fill:#3C2415;}
	.st219{fill:#563825;}
	.st220{fill:#906BA7;}
	.st221{clip-path:url(#SVGID_33_);fill:#C09A80;}
	.st222{fill:#84449A;}
	.st223{clip-path:url(#SVGID_35_);fill:#C09A80;}
	.st224{fill:#F8FBF5;}
	.st225{fill:#493528;}
	.st226{clip-path:url(#SVGID_37_);fill:#C09A80;}
	.st227{fill:#42698E;}
	.st228{clip-path:url(#SVGID_39_);fill:#C09A80;}
	.st229{fill:#184F3E;}
	.st230{fill:#113529;}
	.st231{fill:#020202;}
	.st232{fill:#BB2025;}
	.st233{fill:#F1F2F2;}
	.st234{fill:#19191A;}
	.st235{fill:#C06AA5;}
	.st236{clip-path:url(#SVGID_41_);fill:#C09A80;}
	.st237{fill:#7D9DCB;}
	.st238{fill:#187F7C;}
	.st239{fill:#F0A28A;}
	.st240{fill:#CEBC63;}
	.st241{fill:#B6A457;}
	.st242{fill:#B7A65B;}
	.st243{fill:#A86528;}
	.st244{fill:#CCBC79;}
	.st245{clip-path:url(#SVGID_43_);fill:#C09A80;}
	.st246{fill:#DBCB69;}
	.st247{clip-path:url(#SVGID_45_);fill:#C09A80;}
	.st248{fill:#331A1D;}
	.st249{fill:#441D1E;}
	.st250{fill:#9A1C1F;}
	.st251{clip-path:url(#SVGID_47_);fill:#C09A80;}
	.st252{fill:#666766;}
	.st253{clip-path:url(#SVGID_49_);fill:#AC8DC1;}
	.st254{clip-path:url(#SVGID_51_);fill:#C09A80;}
	.st255{fill:#41130D;}
	.st256{fill:#976339;}
	.st257{fill:#563B20;}
	.st258{fill:#332214;}
	.st259{clip-path:url(#SVGID_53_);fill:#C09A80;}
	.st260{fill:#454545;}
	.st261{fill:#3F2C19;}
	.st262{fill:#E2E2E2;}
	.st263{fill:#AE2130;}
	.st264{fill:#563A22;}
	.st265{clip-path:url(#SVGID_59_);fill:#C09A80;}
	.st266{fill:#2D3518;}
	.st267{fill:#F15A29;}
	.st268{fill:#7C471D;}
	.st269{clip-path:url(#SVGID_61_);fill:#AC8DC1;}
	.st270{clip-path:url(#SVGID_63_);fill:#C09A80;}
	.st271{clip-path:url(#SVGID_65_);fill:#C09A80;}
	.st272{fill:#381E14;}
	.st273{fill:#C2C3C3;}
	.st274{fill:#ECECEB;}
	.st275{fill:#1F7B3D;}
	.st276{clip-path:url(#SVGID_67_);fill:#C09A80;}
	.st277{clip-path:url(#SVGID_69_);fill:#F1F2F2;}
	.st278{clip-path:url(#SVGID_71_);fill:#F1F2F2;}
	.st279{fill:#202D2D;}
	.st280{fill:#182121;}
	.st281{fill:#607298;}
	.st282{clip-path:url(#SVGID_73_);fill:#C09A80;}
	.st283{fill:#3D5094;}
	.st284{fill:#1B1B1B;}
	.st285{fill:#848484;}
	.st286{clip-path:url(#SVGID_75_);fill:#C09A80;}
	.st287{fill:#751113;}
	.st288{clip-path:url(#SVGID_77_);fill:#C09A80;}
	.st289{fill:#22120C;}
	.st290{clip-path:url(#SVGID_79_);fill:#C09A80;}
	.st291{fill:#3C170B;}
	.st292{fill:#27170F;}
	.st293{fill:#121212;}
	.st294{clip-path:url(#SVGID_81_);fill:#C09A80;}
	.st295{fill:#28170F;}
	.st296{fill:#3F2216;}
	.st297{fill:#17374B;}
	.st298{clip-path:url(#SVGID_83_);fill:#C09A80;}
	.st299{clip-path:url(#SVGID_85_);fill:#C09A80;}
	.st300{clip-path:url(#SVGID_87_);fill:#C09A80;}
	.st301{fill:#212255;}
	.st302{fill:#502C15;}
	.st303{fill:#383838;}
	.st304{fill:#6B6B6B;}
	.st305{clip-path:url(#SVGID_89_);fill:#C09A80;}
	.st306{fill:#2A4C23;}
	.st307{fill:#2C6733;}
	.st308{clip-path:url(#SVGID_91_);fill:#C09A80;}
	.st309{fill:#8F8E8E;}
	.st310{clip-path:url(#SVGID_93_);fill:#C09A80;}
	.st311{clip-path:url(#SVGID_95_);fill:#F9F9FA;}
	.st312{clip-path:url(#SVGID_97_);fill:#F9F9FA;}
	.st313{clip-path:url(#SVGID_99_);fill:#C09A80;}
	.st314{fill:#81CDF2;}
	.st315{clip-path:url(#SVGID_101_);fill:#C09A80;}
	.st316{fill:#E81D26;}
	.st317{fill:#FDB515;}
	.st318{fill:#3E1211;}
	.st319{clip-path:url(#SVGID_103_);fill:#C09A80;}
	.st320{fill:#6A1111;}
	.st321{fill:#E07457;}
	.st322{clip-path:url(#SVGID_105_);fill:#C09A80;}
	.st323{fill:#375670;}
	.st324{fill:#3C5E7F;}
	.st325{fill:#424343;}
	.st326{clip-path:url(#SVGID_107_);fill:#F1F2F2;}
	.st327{clip-path:url(#SVGID_109_);fill:#F1F2F2;}
	.st328{fill:#2CACE2;}
	.st329{clip-path:url(#SVGID_111_);fill:#C09A80;}
	.st330{clip-path:url(#SVGID_113_);fill:#C09A80;}
	.st331{fill:#501F59;}
	.st332{fill:#2D1434;}
	.st333{fill:#72411E;}
	.st334{fill:#DDCD6B;}
	.st335{clip-path:url(#SVGID_115_);fill:#C09A80;}
	.st336{fill:#BFAF5E;}
	.st337{fill:#761113;}
	.st338{clip-path:url(#SVGID_117_);fill:#C09A80;}
	.st339{clip-path:url(#SVGID_119_);fill:#C09A80;}
	.st340{fill:#4799C1;}
	.st341{clip-path:url(#SVGID_121_);fill:#AC8DC1;}
	.st342{clip-path:url(#SVGID_123_);fill:#AC8DC1;}
	.st343{fill:#4062AD;}
	.st344{fill:#39612E;}
	.st345{fill:#ED1F24;}
	.st346{fill:#ECC51B;}
	.st347{fill:#FABF13;}
	.st348{fill:none;stroke:#F7BF17;stroke-width:0.5;stroke-miterlimit:10;}
	.st349{fill:#251E0F;}
	.st350{clip-path:url(#SVGID_125_);fill:#AC8DC1;}
	.st351{fill:#77C36E;}
	.st352{clip-path:url(#SVGID_127_);fill:#AC8DC1;}
	.st353{fill:#D64166;}
	.st354{fill:#5E68B0;}
	.st355{fill:#8D53A1;}
	.st356{fill:#006E51;}
	.st357{clip-path:url(#SVGID_129_);fill:#C09A80;}
	.st358{fill:#D3D3D3;}
	.st359{fill:#EEC11B;}
	.st360{clip-path:url(#SVGID_131_);fill:#C09A80;}
	.st361{fill:#1D3963;}
	.st362{fill:#325A93;}
	.st363{clip-path:url(#SVGID_133_);fill:#C09A80;}
	.st364{clip-path:url(#SVGID_135_);fill:#C09A80;}
	.st365{clip-path:url(#SVGID_137_);fill:#C09A80;}
	.st366{clip-path:url(#SVGID_139_);fill:#C09A80;}
	.st367{clip-path:url(#SVGID_141_);fill:#F1F2F2;}
	.st368{clip-path:url(#SVGID_143_);fill:#F1F2F2;}
	.st369{clip-path:url(#SVGID_145_);fill:#C09A80;}
	.st370{clip-path:url(#SVGID_147_);fill:#C09A80;}
	.st371{clip-path:url(#SVGID_149_);fill:#C09A80;}
	.st372{clip-path:url(#SVGID_151_);fill:#C09A80;}
	.st373{clip-path:url(#SVGID_153_);fill:#C09A80;}
	.st374{clip-path:url(#SVGID_155_);fill:#C09A80;}
	.st375{clip-path:url(#SVGID_157_);fill:#C09A80;}
	.st376{clip-path:url(#SVGID_159_);fill:#C09A80;}
	.st377{fill:#595756;}
	.st378{clip-path:url(#SVGID_161_);fill:#C09A80;}
	.st379{fill:#262122;}
	.st380{clip-path:url(#SVGID_163_);fill:#C09A80;}
	.st381{clip-path:url(#SVGID_165_);fill:#C09A80;}
	.st382{clip-path:url(#SVGID_167_);fill:#C09A80;}
	.st383{clip-path:url(#SVGID_169_);fill:#C09A80;}
	.st384{clip-path:url(#SVGID_171_);fill:#C09A80;}
	.st385{clip-path:url(#SVGID_173_);fill:#C09A80;}
	.st386{clip-path:url(#SVGID_175_);fill:#C09A80;}
	.st387{clip-path:url(#SVGID_177_);fill:#C09A80;}
	.st388{clip-path:url(#SVGID_179_);fill:#C09A80;}
	.st389{fill:#7C494E;}
	.st390{clip-path:url(#SVGID_181_);fill:#C09A80;}
	.st391{clip-path:url(#SVGID_183_);fill:#C09A80;}
	.st392{clip-path:url(#SVGID_185_);fill:#C09A80;}
	.st393{clip-path:url(#SVGID_187_);fill:#C09A80;}
	.st394{clip-path:url(#SVGID_189_);fill:#C09A80;}
	.st395{clip-path:url(#SVGID_191_);fill:#C09A80;}
	.st396{clip-path:url(#SVGID_193_);fill:#C09A80;}
	.st397{clip-path:url(#SVGID_195_);fill:#C09A80;}
	.st398{clip-path:url(#SVGID_197_);fill:#C09A80;}
	.st399{clip-path:url(#SVGID_199_);fill:#C09A80;}
	.st400{fill:#414042;}
	.st401{clip-path:url(#SVGID_201_);fill:#C09A80;}
	.st402{clip-path:url(#SVGID_203_);fill:#C09A80;}
	.st403{fill:#2D2D2D;}
	.st404{clip-path:url(#SVGID_205_);fill:#C09A80;}
	.st405{clip-path:url(#SVGID_207_);fill:#C09A80;}
	.st406{clip-path:url(#SVGID_209_);fill:#C09A80;}
	.st407{clip-path:url(#SVGID_211_);fill:#F2D1AC;}
	.st408{clip-path:url(#SVGID_213_);fill:#C09A80;}
	.st409{clip-path:url(#SVGID_215_);fill:#C09A80;}
	.st410{clip-path:url(#SVGID_217_);fill:#C09A80;}
	.st411{clip-path:url(#SVGID_219_);fill:#C09A80;}
	.st412{clip-path:url(#SVGID_221_);fill:#C09A80;}
	.st413{opacity:0.69;fill:#939598;}
	.st414{fill:#C59C6D;}
	.st415{clip-path:url(#SVGID_223_);fill:#C09A80;}
	.st416{clip-path:url(#SVGID_229_);fill:#C09A80;}
	.st417{clip-path:url(#SVGID_231_);fill:#C09A80;}
	.st418{clip-path:url(#SVGID_233_);fill:#C09A80;}
	.st419{clip-path:url(#SVGID_235_);fill:#C09A80;}
	.st420{fill:#FFF200;}
	.st421{clip-path:url(#SVGID_237_);fill:#C09A80;}
	.st422{clip-path:url(#SVGID_239_);fill:#C09A80;}
	.st423{clip-path:url(#SVGID_241_);fill:#C09A80;}
	.st424{clip-path:url(#SVGID_243_);fill:#C09A80;}
	.st425{fill:#718FAF;}
	.st426{clip-path:url(#SVGID_245_);fill:#C09A80;}
	.st427{clip-path:url(#SVGID_247_);fill:#C09A80;}
	.st428{clip-path:url(#SVGID_249_);fill:#C09A80;}
	.st429{clip-path:url(#SVGID_251_);fill:#C09A80;}
	.st430{fill:#EF4136;}
	.st431{fill:#353535;}
	.st432{opacity:0.7;fill:#718FAF;}
	.st433{opacity:0.3;fill:#CCD2D8;}
	.st434{fill:#41464C;}
	.st435{fill:#757576;}
	.st436{fill:none;stroke:#757576;stroke-width:0.25;stroke-miterlimit:10;}
	.st437{opacity:0.8;fill:#1B1D1E;}
	.st438{opacity:0.2;fill:#EBECED;}
	.st439{clip-path:url(#SVGID_257_);fill:#C09A80;}
	.st440{opacity:0.4;clip-path:url(#SVGID_259_);fill:#1B1D1E;}
	.st441{opacity:0.4;clip-path:url(#SVGID_261_);fill:#1B1D1E;}
	.st442{fill:#101212;}
	.st443{opacity:0.1;fill:#EBECED;}
	.st444{fill:#60471B;}
	.st445{fill:#F26522;}
	.st446{fill:#F7941D;}
	.st447{fill:url(#SVGID_262_);}
	.st448{fill:#322413;}
	.st449{fill:url(#SVGID_263_);}
	.st450{fill:#E1D1B8;}
	.st451{fill:url(#SVGID_264_);}
	.st452{opacity:0.2;fill:#1B1D1E;}
	.st453{fill:#EE2A7B;}
	.st454{clip-path:url(#SVGID_266_);fill:#C09A80;}
	.st455{clip-path:url(#SVGID_268_);fill:#C09A80;}
	.st456{clip-path:url(#SVGID_270_);fill:#C09A80;}
	.st457{clip-path:url(#SVGID_272_);fill:#C09A80;}
	.st458{fill:#8B5E3C;}
	.st459{fill:#FFDE17;}
	.st460{fill:#47282B;}
	.st461{fill:#F9ED32;}
	.st462{fill:#B73426;}
	.st463{fill:#1A1A1A;}
	.st464{clip-path:url(#SVGID_274_);fill:#C09A80;}
	.st465{fill:#A43C34;}
	.st466{clip-path:url(#SVGID_276_);fill:#C09A80;}
	.st467{clip-path:url(#SVGID_278_);fill:#C09A80;}
	.st468{clip-path:url(#SVGID_280_);fill:#C09A80;}
	.st469{clip-path:url(#SVGID_282_);fill:#C09A80;}
	.st470{clip-path:url(#SVGID_284_);fill:#C09A80;}
	.st471{clip-path:url(#SVGID_286_);fill:#C09A80;}
	.st472{clip-path:url(#SVGID_288_);fill:#C09A80;}
	.st473{opacity:0.4;}
	.st474{fill:#A35A61;}
	.st475{clip-path:url(#SVGID_290_);fill:#C09A80;}
	.st476{clip-path:url(#SVGID_296_);fill:#C09A80;}
	.st477{clip-path:url(#SVGID_298_);fill:#C09A80;}
	.st478{clip-path:url(#SVGID_300_);fill:#C09A80;}
	.st479{fill:#27AAE1;}
	.st480{clip-path:url(#SVGID_302_);fill:#C09A80;}
	.st481{clip-path:url(#SVGID_304_);fill:#C09A80;}
	.st482{clip-path:url(#SVGID_306_);fill:#C09A80;}
	.st483{fill:#9E1F63;}
	.st484{clip-path:url(#SVGID_308_);fill:#C09A80;}
	.st485{clip-path:url(#SVGID_310_);fill:#C09A80;}
	.st486{fill-rule:evenodd;clip-rule:evenodd;fill:#3A2817;}
	.st487{fill:#C67429;}
	.st488{clip-path:url(#SVGID_312_);fill:#C09A80;}
	.st489{clip-path:url(#SVGID_314_);fill:#C09A80;}
	.st490{clip-path:url(#SVGID_316_);fill:#C09A80;}
	.st491{fill:#D3AA2A;}
	.st492{clip-path:url(#SVGID_322_);fill:#C09A80;}
	.st493{clip-path:url(#SVGID_324_);fill:#C09A80;}
	.st494{clip-path:url(#SVGID_326_);fill:#C09A80;}
	.st495{clip-path:url(#SVGID_328_);fill:#C09A80;}
	.st496{clip-path:url(#SVGID_330_);fill:#C09A80;}
	.st497{fill:#89212C;}
	.st498{fill:#1B75BC;}
	.st499{fill:#6D6E71;}
	.st500{clip-path:url(#SVGID_332_);fill:#C09A80;}
	.st501{clip-path:url(#SVGID_334_);fill:#C09A80;}
	.st502{fill:#754C29;}
	.st503{fill:#662D91;}
	.st504{fill:#3C968D;}
	.st505{fill:#1B1A1B;stroke:#000000;stroke-miterlimit:10;}
	.st506{fill:#58595B;}
	.st507{clip-path:url(#SVGID_336_);fill:#C09A80;}
	.st508{clip-path:url(#SVGID_338_);fill:#C09A80;}
	.st509{clip-path:url(#SVGID_340_);fill:#C09A80;}
	.st510{clip-path:url(#SVGID_342_);fill:#C09A80;}
	.st511{fill:#3A3838;}
	.st512{clip-path:url(#SVGID_344_);fill:#C09A80;}
	.st513{clip-path:url(#SVGID_346_);fill:#C09A80;}
	.st514{fill:#3D4556;}
	.st515{clip-path:url(#SVGID_348_);fill:#C09A80;}
	.st516{clip-path:url(#SVGID_354_);fill:#C09A80;}
	.st517{clip-path:url(#SVGID_356_);fill:#C09A80;}
	.st518{fill:#724146;}
	.st519{clip-path:url(#SVGID_358_);fill:#C09A80;}
	.st520{clip-path:url(#SVGID_360_);fill:#C09A80;}
	.st521{fill:#D6D6D6;}
	.st522{fill:#891F2C;}
	.st523{clip-path:url(#SVGID_362_);fill:#C09A80;}
	.st524{clip-path:url(#SVGID_364_);fill:#C09A80;}
	.st525{fill:#9D9D9D;}
	.st526{clip-path:url(#SVGID_370_);fill:#C09A80;}
	.st527{fill:#2BABE2;}
	.st528{clip-path:url(#SVGID_372_);fill:#C09A80;}
	.st529{clip-path:url(#SVGID_374_);fill:#C09A80;}
	.st530{opacity:0.5;fill:#4AC2EF;}
	.st531{fill:#494345;}
	.st532{clip-path:url(#SVGID_376_);fill:#C09A80;}
	.st533{clip-path:url(#SVGID_378_);fill:#C09A80;}
	.st534{clip-path:url(#SVGID_380_);fill:#C09A80;}
	.st535{opacity:0.7;fill:#414042;}
	.st536{opacity:0.2;fill:#4AC2EF;}
	.st537{fill:#21447F;}
	.st538{fill:#A51E26;}
	.st539{fill:#EABF48;}
	.st540{clip-path:url(#SVGID_382_);fill:#C09A80;}
	.st541{fill:#F7DF30;}
	.st542{clip-path:url(#SVGID_384_);fill:#C09A80;}
	.st543{fill:#492F19;}
	.st544{fill:#D8D8D8;}
	.st545{clip-path:url(#SVGID_386_);fill:#C09A80;}
	.st546{clip-path:url(#SVGID_388_);fill:#C09A80;}
	.st547{fill:#4F8B8E;}
	.st548{clip-path:url(#SVGID_390_);fill:#C09A80;}
	.st549{clip-path:url(#SVGID_392_);fill:#C09A80;}
	.st550{clip-path:url(#SVGID_394_);fill:#C09A80;}
	.st551{clip-path:url(#SVGID_400_);fill:#C09A80;}
	.st552{clip-path:url(#SVGID_402_);fill:#C09A80;}
	.st553{clip-path:url(#SVGID_404_);fill:#C09A80;}
	.st554{clip-path:url(#SVGID_406_);fill:#C09A80;}
	.st555{clip-path:url(#SVGID_408_);fill:#C09A80;}
	.st556{opacity:0.4;fill:#D1D3D4;}
	.st557{clip-path:url(#SVGID_410_);fill:#C09A80;}
	.st558{clip-path:url(#SVGID_412_);fill:#C09A80;}
	.st559{fill:#E5E5E5;}
	.st560{clip-path:url(#SVGID_418_);fill:#C09A80;}
	.st561{clip-path:url(#SVGID_420_);fill:#C09A80;}
	.st562{clip-path:url(#SVGID_422_);fill:#C09A80;}
	.st563{clip-path:url(#SVGID_424_);fill:#C09A80;}
	.st564{fill:#844B50;}
	.st565{clip-path:url(#SVGID_426_);fill:#C09A80;}
	.st566{clip-path:url(#SVGID_428_);fill:#C09A80;}
	.st567{clip-path:url(#SVGID_430_);fill:#C09A80;}
	.st568{fill:#3398B7;}
	.st569{clip-path:url(#SVGID_432_);fill:#C09A80;}
	.st570{clip-path:url(#SVGID_438_);fill:#C09A80;}
	.st571{clip-path:url(#SVGID_440_);fill:#C09A80;}
	.st572{fill:#6C547F;}
	.st573{clip-path:url(#SVGID_442_);fill:#C09A80;}
	.st574{clip-path:url(#SVGID_444_);fill:#C09A80;}
	.st575{fill:#A9A8A8;}
	.st576{clip-path:url(#SVGID_446_);fill:#C09A80;}
	.st577{clip-path:url(#SVGID_448_);fill:#C09A80;}
	.st578{clip-path:url(#SVGID_450_);fill:#C09A80;}
	.st579{clip-path:url(#SVGID_452_);fill:#C09A80;}
	.st580{clip-path:url(#SVGID_454_);fill:#C09A80;}
	.st581{clip-path:url(#SVGID_456_);fill:#C09A80;}
	.st582{clip-path:url(#SVGID_458_);fill:#C09A80;}
	.st583{clip-path:url(#SVGID_464_);fill:#C09A80;}
	.st584{clip-path:url(#SVGID_466_);fill:#C09A80;}
	.st585{clip-path:url(#SVGID_468_);fill:#C09A80;}
	.st586{clip-path:url(#SVGID_470_);fill:#C09A80;}
	.st587{clip-path:url(#SVGID_472_);fill:#C09A80;}
	.st588{clip-path:url(#SVGID_478_);fill:#C09A80;}
	.st589{fill:#1B1D1E;}
	.st590{fill:#DBDBDB;}
	.st591{clip-path:url(#SVGID_480_);fill:#C09A80;}
	.st592{clip-path:url(#SVGID_482_);fill:#C09A80;}
	.st593{fill:#705D7F;}
	.st594{clip-path:url(#SVGID_484_);fill:#C09A80;}
	.st595{clip-path:url(#SVGID_486_);fill:#C09A80;}
	.st596{fill:#302218;}
	.st597{clip-path:url(#SVGID_488_);fill:#C09A80;}
	.st598{opacity:0.4;fill:#414042;}
	.st599{fill:#F0EFEE;}
	.st600{fill:#E8E8E8;}
	.st601{clip-path:url(#SVGID_490_);fill:#C09A80;}
	.st602{clip-path:url(#SVGID_492_);fill:#C09A80;}
	.st603{fill:#352626;}
	.st604{fill:#E1BE9B;}
	.st605{fill:#F1D1AD;}
	.st606{clip-path:url(#SVGID_494_);fill:#BF9980;}
	.st607{fill:#D3A889;}
	.st608{fill:#BF9980;}
	.st609{fill:#DEB79A;}
	.st610{fill:#414142;}
	.st611{clip-path:url(#SVGID_496_);fill:#BF9980;}
	.st612{fill:#0E0F0F;}
	.st613{fill:#3A2918;}
	.st614{clip-path:url(#SVGID_498_);fill:#BF9980;}
	.st615{fill:#1B1C1C;}
	.st616{clip-path:url(#SVGID_500_);fill:#BF9980;}
	.st617{fill:#432715;}
	.st618{fill:#5D4D53;}
	.st619{clip-path:url(#SVGID_502_);fill:#BF9980;}
	.st620{fill:#777777;}
	.st621{opacity:0.8;fill:#1B1C1D;}
	.st622{opacity:0.2;fill:#EBECEB;}
	.st623{clip-path:url(#SVGID_504_);fill:#BF9980;}
	.st624{clip-path:url(#SVGID_506_);fill:#C09A80;}
	.st625{fill:#969696;}
	.st626{clip-path:url(#SVGID_508_);fill:#C09A80;}
	.st627{clip-path:url(#SVGID_510_);fill:#C09A80;}
	.st628{fill:#543F43;}
	.st629{clip-path:url(#SVGID_512_);fill:#C09A80;}
	.st630{clip-path:url(#SVGID_514_);fill:#C09A80;}
	.st631{clip-path:url(#SVGID_516_);fill:#C09A80;}
	.st632{clip-path:url(#SVGID_522_);fill:#C09A80;}
	.st633{clip-path:url(#SVGID_524_);fill:#C09A80;}
	.st634{fill:#4A5B7A;}
	.st635{opacity:0.7;fill:#322F56;}
	.st636{clip-path:url(#SVGID_526_);fill:#C09A80;}
	.st637{clip-path:url(#SVGID_528_);fill:#C09A80;}
	.st638{clip-path:url(#SVGID_530_);fill:#C09A80;}
	.st639{clip-path:url(#SVGID_532_);fill:#C09A80;}
	.st640{clip-path:url(#SVGID_534_);fill:#C09A80;}
	.st641{clip-path:url(#SVGID_536_);fill:#C09A80;}
	.st642{clip-path:url(#SVGID_538_);fill:#C09A80;}
	.st643{clip-path:url(#SVGID_544_);fill:#C09A80;}
	.st644{clip-path:url(#SVGID_546_);fill:#C09A80;}
	.st645{clip-path:url(#SVGID_548_);fill:#C09A80;}
	.st646{clip-path:url(#SVGID_550_);fill:#C09A80;}
	.st647{clip-path:url(#SVGID_556_);fill:#C09A80;}
	.st648{fill:#009444;}
	.st649{fill:#84161D;}
	.st650{clip-path:url(#SVGID_558_);fill:#C09A80;}
	.st651{clip-path:url(#SVGID_560_);fill:#C09A80;}
	.st652{clip-path:url(#SVGID_562_);fill:#C09A80;}
	.st653{clip-path:url(#SVGID_564_);fill:#C09A80;}
	.st654{clip-path:url(#SVGID_566_);fill:#BF9980;}
	.st655{clip-path:url(#SVGID_568_);fill:#BF9980;}
	.st656{clip-path:url(#SVGID_570_);fill:#BF9980;}
	.st657{clip-path:url(#SVGID_572_);fill:#BF9980;}
	.st658{clip-path:url(#SVGID_574_);fill:#BF9980;}
	.st659{clip-path:url(#SVGID_576_);fill:#BF9980;}
	.st660{fill:#36797C;}
	.st661{clip-path:url(#SVGID_578_);fill:#C09A80;}
	.st662{fill:#CEC33A;}
	.st663{fill:#303056;}
	.st664{clip-path:url(#SVGID_580_);fill:#C09A80;}
	.st665{clip-path:url(#SVGID_582_);fill:#C09A80;}
	.st666{clip-path:url(#SVGID_584_);fill:#C09A80;}
	.st667{clip-path:url(#SVGID_586_);fill:#C09A80;}
	.st668{clip-path:url(#SVGID_588_);fill:#C09A80;}
	.st669{clip-path:url(#SVGID_590_);fill:#C09A80;}
	.st670{clip-path:url(#SVGID_592_);fill:#C09A80;}
	.st671{clip-path:url(#SVGID_594_);fill:#C09A80;}
	.st672{fill:#CEB195;}
	.st673{clip-path:url(#SVGID_596_);fill:#C09A80;}
	.st674{clip-path:url(#SVGID_602_);fill:#C09A80;}
	.st675{clip-path:url(#SVGID_604_);fill:#C09A80;}
	.st676{clip-path:url(#SVGID_606_);fill:#C09A80;}
	.st677{clip-path:url(#SVGID_608_);fill:#C09A80;}
	.st678{clip-path:url(#SVGID_610_);fill:#C09A80;}
	.st679{clip-path:url(#SVGID_612_);fill:#C09A80;}
	.st680{clip-path:url(#SVGID_614_);fill:#C09A80;}
	.st681{clip-path:url(#SVGID_616_);fill:#C09A80;}
	.st682{clip-path:url(#SVGID_618_);fill:#C09A80;}
	.st683{clip-path:url(#SVGID_620_);fill:#C09A80;}
	.st684{clip-path:url(#SVGID_622_);fill:#C09A80;}
	.st685{clip-path:url(#SVGID_624_);fill:#C09A80;}
	.st686{clip-path:url(#SVGID_626_);fill:#C09A80;}
	.st687{clip-path:url(#SVGID_628_);fill:#C09A80;}
	.st688{clip-path:url(#SVGID_630_);fill:#C09A80;}
	.st689{clip-path:url(#SVGID_632_);fill:#C09A80;}
	.st690{clip-path:url(#SVGID_634_);fill:#C09A80;}
	.st691{clip-path:url(#SVGID_636_);fill:#C09A80;}
	.st692{clip-path:url(#SVGID_638_);fill:#C09A80;}
	.st693{clip-path:url(#SVGID_640_);fill:#C09A80;}
	.st694{clip-path:url(#SVGID_642_);fill:#C09A80;}
	.st695{clip-path:url(#SVGID_644_);fill:#C09A80;}
	.st696{clip-path:url(#SVGID_646_);fill:#C09A80;}
	.st697{clip-path:url(#SVGID_648_);fill:#C09A80;}
	.st698{clip-path:url(#SVGID_650_);fill:#C09A80;}
	.st699{fill:#723B41;}
	.st700{clip-path:url(#SVGID_652_);fill:#C09A80;}
	.st701{clip-path:url(#SVGID_654_);fill:#C09A80;}
	.st702{clip-path:url(#SVGID_656_);fill:#C09A80;}
	.st703{clip-path:url(#SVGID_658_);fill:#C09A80;}
	.st704{clip-path:url(#SVGID_660_);fill:#C09A80;}
	.st705{clip-path:url(#SVGID_662_);fill:#C09A80;}
	.st706{clip-path:url(#SVGID_664_);fill:#C09A80;}
	.st707{clip-path:url(#SVGID_666_);fill:#C09A80;}
	.st708{clip-path:url(#SVGID_668_);fill:#C09A80;}
	.st709{clip-path:url(#SVGID_670_);fill:#C09A80;}
	.st710{clip-path:url(#SVGID_672_);fill:#C09A80;}
	.st711{clip-path:url(#SVGID_674_);fill:#C09A80;}
	.st712{clip-path:url(#SVGID_676_);fill:#C09A80;}
	.st713{clip-path:url(#SVGID_678_);fill:#C09A80;}
	.st714{clip-path:url(#SVGID_680_);fill:#C09A80;}
	.st715{clip-path:url(#SVGID_682_);fill:#C09A80;}
	.st716{clip-path:url(#SVGID_684_);fill:#C09A80;}
	.st717{clip-path:url(#SVGID_686_);fill:#C09A80;}
	.st718{clip-path:url(#SVGID_688_);fill:#C09A80;}
	.st719{clip-path:url(#SVGID_690_);fill:#C09A80;}
	.st720{clip-path:url(#SVGID_692_);fill:#C09A80;}
	.st721{clip-path:url(#SVGID_694_);fill:#C09A80;}
	.st722{clip-path:url(#SVGID_696_);fill:#C09A80;}
	.st723{clip-path:url(#SVGID_698_);fill:#C09A80;}
	.st724{clip-path:url(#SVGID_700_);fill:#C09A80;}
	.st725{fill:#C7634F;}
	.st726{clip-path:url(#SVGID_702_);fill:#C09A80;}
	.st727{clip-path:url(#SVGID_704_);fill:#C09A80;}
	.st728{clip-path:url(#SVGID_706_);fill:#C09A80;}
	.st729{clip-path:url(#SVGID_708_);fill:#C09A80;}
	.st730{clip-path:url(#SVGID_710_);fill:#C09A80;}
	.st731{clip-path:url(#SVGID_712_);fill:#C09A80;}
	.st732{clip-path:url(#SVGID_714_);fill:#C09A80;}
	.st733{clip-path:url(#SVGID_716_);fill:#C09A80;}
	.st734{clip-path:url(#SVGID_718_);fill:#C09A80;}
	.st735{clip-path:url(#SVGID_720_);fill:#C09A80;}
	.st736{clip-path:url(#SVGID_726_);fill:#C09A80;}
	.st737{clip-path:url(#SVGID_728_);fill:#C09A80;}
	.st738{clip-path:url(#SVGID_730_);fill:#C09A80;}
	.st739{clip-path:url(#SVGID_732_);fill:#C09A80;}
	.st740{clip-path:url(#SVGID_734_);fill:#C09A80;}
	.st741{clip-path:url(#SVGID_736_);fill:#C09A80;}
	.st742{clip-path:url(#SVGID_738_);fill:#C09A80;}
	.st743{clip-path:url(#SVGID_740_);fill:#C09A80;}
	.st744{fill:#3D4D55;}
	.st745{fill:#F4CF32;}
	.st746{clip-path:url(#SVGID_742_);fill:#C09A80;}
	.st747{clip-path:url(#SVGID_744_);fill:#C09A80;}
	.st748{clip-path:url(#SVGID_746_);fill:#C09A80;}
	.st749{clip-path:url(#SVGID_748_);fill:#C09A80;}
	.st750{clip-path:url(#SVGID_750_);fill:#C09A80;}
	.st751{clip-path:url(#SVGID_752_);fill:#C09A80;}
	.st752{fill:#97C990;}
	.st753{fill:#3F9286;}
	.st754{fill:#F17068;}
	.st755{fill:#B94C6B;}
	.st756{fill:#80263F;}
	.st757{fill:#EE7277;}
	.st758{fill:#FCBE30;}
	.st759{fill:#B74E6B;}
	.st760{fill:#F16624;}
	.st761{fill:#FAAE39;}
	.st762{fill:#6E333E;}
	.st763{clip-path:url(#SVGID_754_);fill:#C09A80;}
	.st764{clip-path:url(#SVGID_756_);fill:#C09A80;}
	.st765{clip-path:url(#SVGID_758_);fill:#C09A80;}
	.st766{clip-path:url(#SVGID_760_);fill:#C09A80;}
	.st767{clip-path:url(#SVGID_762_);fill:#C09A80;}
	.st768{clip-path:url(#SVGID_764_);fill:#C09A80;}
	.st769{clip-path:url(#SVGID_766_);fill:#C09A80;}
	.st770{clip-path:url(#SVGID_772_);fill:#C09A80;}
	.st771{clip-path:url(#SVGID_774_);fill:#C09A80;}
	.st772{clip-path:url(#SVGID_776_);fill:#C09A80;}
	.st773{clip-path:url(#SVGID_778_);fill:#C09A80;}
	.st774{clip-path:url(#SVGID_780_);fill:#C09A80;}
	.st775{clip-path:url(#SVGID_782_);fill:#C09A80;}
	.st776{clip-path:url(#SVGID_788_);fill:#C09A80;}
	.st777{clip-path:url(#SVGID_790_);fill:#C09A80;}
	.st778{clip-path:url(#SVGID_792_);fill:#C09A80;}
	.st779{clip-path:url(#SVGID_794_);fill:#C09A80;}
	.st780{clip-path:url(#SVGID_796_);fill:#C09A80;}
	.st781{clip-path:url(#SVGID_798_);fill:#C09A80;}
	.st782{clip-path:url(#SVGID_800_);fill:#C09A80;}
	.st783{clip-path:url(#SVGID_802_);fill:#C09A80;}
	.st784{clip-path:url(#SVGID_804_);fill:#C09A80;}
	.st785{clip-path:url(#SVGID_806_);fill:#C09A80;}
	.st786{clip-path:url(#SVGID_808_);fill:#C09A80;}
	.st787{clip-path:url(#SVGID_810_);fill:#C09A80;}
	.st788{clip-path:url(#SVGID_816_);fill:#C09A80;}
	.st789{clip-path:url(#SVGID_818_);fill:#C09A80;}
	.st790{clip-path:url(#SVGID_820_);fill:#C09A80;}
	.st791{clip-path:url(#SVGID_822_);fill:#C09A80;}
	.st792{clip-path:url(#SVGID_824_);fill:#C09A80;}
	.st793{clip-path:url(#SVGID_826_);fill:#C09A80;}
	.st794{clip-path:url(#SVGID_832_);fill:#C09A80;}
	.st795{fill:#5D5E5E;}
	.st796{opacity:0.5;fill:#1B1D1E;}
	.st797{opacity:0.2;fill:#FFFFFF;}
	.st798{opacity:0.1;fill:#FFFFFF;}
	.st799{fill:#B11F24;}
	.st800{opacity:0.3;fill:#232323;}
	.st801{opacity:0.6;fill:#0D0D0D;}
	.st802{opacity:0.2;fill:#F9F9FA;}
	.st803{clip-path:url(#SVGID_834_);fill:#C09A80;}
	.st804{clip-path:url(#SVGID_836_);fill:#C09A80;}
	.st805{fill:#F26351;}
	.st806{fill:#5FC5F1;}
	.st807{fill:#FEC62D;}
	.st808{fill:#F8AD3A;}
	.st809{fill:#8868AC;}
	.st810{fill:#6395A4;}
	.st811{fill:#8C191B;}
	.st812{fill:#9C4328;}
	.st813{fill:#ADB638;}
	.st814{fill:#AB3D2D;}
	.st815{fill:#B64F6B;}
	.st816{fill:#5190CC;}
	.st817{fill:#3C4D87;}
	.st818{fill:#0B1D3D;}
	.st819{fill:#409185;}
	.st820{fill:#41132B;}
	.st821{fill:#72395B;}
	.st822{fill:#42365C;}
	.st823{fill:#3F3237;}
	.st824{fill:#E39832;}
	.st825{fill:#E1C47D;}
	.st826{fill:#A67358;}
	.st827{fill:#F9F9FC;}
	.st828{fill:#AFCE39;}
	.st829{fill:#D73B78;}
	.st830{fill:#089270;}
	.st831{clip-path:url(#SVGID_838_);fill:#009444;}
	.st832{clip-path:url(#SVGID_844_);fill:#C09A80;}
	.st833{clip-path:url(#SVGID_846_);fill:#C09A80;}
	.st834{clip-path:url(#SVGID_848_);fill:#C09A80;}
	.st835{clip-path:url(#SVGID_850_);fill:#C09A80;}
	.st836{clip-path:url(#SVGID_852_);fill:#C09A80;}
	.st837{clip-path:url(#SVGID_854_);fill:#C09A80;}
	.st838{clip-path:url(#SVGID_856_);fill:#C09A80;}
	.st839{clip-path:url(#SVGID_858_);fill:#C09A80;}
	.st840{clip-path:url(#SVGID_860_);fill:#C09A80;}
	.st841{clip-path:url(#SVGID_862_);fill:#C09A80;}
	.st842{clip-path:url(#SVGID_864_);fill:#C09A80;}
	.st843{clip-path:url(#SVGID_866_);fill:#C09A80;}
	.st844{clip-path:url(#SVGID_868_);fill:#C09A80;}
	.st845{clip-path:url(#SVGID_870_);fill:#C09A80;}
	.st846{clip-path:url(#SVGID_872_);fill:#C09A80;}
	.st847{clip-path:url(#SVGID_874_);fill:#C09A80;}
	.st848{fill:#702974;}
	.st849{fill:#E92768;}
	.st850{clip-path:url(#SVGID_876_);fill:#C09A80;}
	.st851{clip-path:url(#SVGID_878_);fill:#C09A80;}
	.st852{clip-path:url(#SVGID_880_);fill:#C09A80;}
	.st853{clip-path:url(#SVGID_882_);fill:#C09A80;}
	.st854{fill:#00A651;}
	.st855{clip-path:url(#SVGID_884_);fill:#C09A80;}
	.st856{clip-path:url(#SVGID_890_);fill:#C09A80;}
	.st857{fill-rule:evenodd;clip-rule:evenodd;fill:#7F4C50;}
	.st858{fill-rule:evenodd;clip-rule:evenodd;fill:#432612;}
	.st859{fill:#30606B;}
	.st860{opacity:0.7;fill:url(#SVGID_891_);}
	.st861{fill:#2C2C36;}
	.st862{fill:#ECD493;}
	.st863{clip-path:url(#SVGID_893_);fill:#C09A80;}
	.st864{clip-path:url(#SVGID_895_);fill:#C09A80;}
	.st865{fill:#F7CC1B;}
</style>
<path class="st171" d="M10.6,17.2C10.2,17,9.5,17,9,17l0,0c0,0-0.1,0-0.2,0c-0.1,0-0.2,0-0.2,0l0,0c-0.5,0-1.2,0-1.6,0.2
	c-0.7,0.2-0.9,1-1.6,1.6c0,0,1-0.1,1.7-0.3c0.6-0.2,0.7-0.4,1.6-0.7c0.1,0,0.2-0.1,0.2-0.1c0.1,0,0.1,0.1,0.2,0.1
	c0.9,0.3,1,0.5,1.6,0.7c0.6,0.2,1.7,0.3,1.7,0.3C11.5,18.2,11.3,17.4,10.6,17.2z"/>
<g>
	<g>
		<g>
		</g>
	</g>
	<g>
		<path class="st178" d="M10.1,17.8v11.3H3.9c-0.1,0-0.2-0.1-0.2-0.1c0-4.7,2.2-6,3.3-6.4c0.3-0.1,0.5-0.1,0.5-0.1
			c0.4,0,0.6-0.5,0.8-1.2c0-0.1,0-0.2,0.1-0.4c0-0.2,0.1-0.4,0.1-0.7c0-0.1,0-0.3,0-0.4c0.1-0.7,0.1-1.5,0.1-2.2
			C8.6,17.7,9.4,17.8,10.1,17.8"/>
		<path class="st10" d="M16.4,29.1c0,0-0.1,0-0.1,0.1h-6.2V17.8h0c0.7,0,1.5-0.1,1.5-0.1c0,0.7,0,1.5,0.1,2.2c0,0.1,0,0.3,0,0.4
			c0,0.2,0,0.5,0.1,0.7v0c0,0.1,0,0.2,0.1,0.3c0.2,0.8,0.4,1.3,0.8,1.3c0,0,0.3,0,0.8,0.2C14.5,23.3,16.4,24.8,16.4,29.1"/>
		<g>
			<defs>
				<rect id="SVGID_341_" x="8.4" y="19.9" width="3.4" height="2"/>
			</defs>
			<clipPath id="SVGID_1_">
				<use xlink:href="#SVGID_341_"  style="overflow:visible;"/>
			</clipPath>
			<path style="clip-path:url(#SVGID_1_);fill:#C09A80;" d="M11.8,21L11.8,21c-0.2,0.2-0.7,0.9-1.7,0.9h0c-1,0-1.6-0.7-1.7-0.9
				c0-0.2,0.1-0.4,0.1-0.7c0-0.1,0-0.3,0-0.4c0.5,0.1,1,0.2,1.6,0.2h0c0.6,0,1.1-0.1,1.6-0.2c0,0.1,0,0.3,0,0.4
				C11.7,20.5,11.8,20.8,11.8,21"/>
		</g>
		<path class="st12" d="M10,4.8c-6.5,0-6.6,5.5-6.3,9C3.2,13,1.9,13.3,2,14.6c0.1,1.3,2,2,1.9,1.8c0.5,2.9,3.6,4.6,6,4.6
			c0,0,0,0,0,0L10,4.8C10,4.8,10,4.8,10,4.8"/>
		<path class="st13" d="M2.4,14.1c0.3-0.5,0.8-0.3,0.9-0.2c0.1,0.1,0.2,0.3,0.2,0.6c0,0.2-0.2,0.2-0.2,0.4c0,0.3,0.2,0.3,0.3,0.4
			c0.1,0.1,0.2,0.1,0.2,0.2c0,0.1,0.1,0.3,0,0.4c-0.1,0.2-0.4,0-0.6-0.1c-0.1-0.1-0.6-0.4-0.7-0.5C2.4,15,2.2,14.4,2.4,14.1"/>
		<path class="st14" d="M10,4.8c6.5,0,6.6,5.5,6.3,9c0.4-0.8,1.8-0.6,1.7,0.8c-0.1,1.3-2,2-1.9,1.8c-0.5,2.9-3.6,4.6-6,4.6
			c0,0,0,0,0,0L10,4.8C10,4.8,10,4.8,10,4.8"/>
		<path class="st13" d="M17.5,14.1c-0.3-0.5-0.8-0.3-0.9-0.2c-0.1,0.1-0.2,0.3-0.2,0.6c0,0.2,0.2,0.2,0.2,0.4c0,0.3-0.2,0.3-0.3,0.4
			c-0.1,0.1-0.2,0.1-0.2,0.2c0,0.1-0.1,0.3,0,0.4c0,0.2,0.4,0,0.6-0.1c0.1-0.1,0.6-0.4,0.7-0.5C17.6,15,17.7,14.4,17.5,14.1"/>
		<path class="st178" d="M10,6.4C7.9,6.4,6.3,7,5.4,8.2C4,9.9,4.1,12.6,4.6,14.5c0.1,0.6,0.2,2.1,0.3,2.7c0.5,2.6,3.3,3.9,5.1,3.9
			c0,0,0,0,0,0L10,6.4C10.1,6.4,10.1,6.4,10,6.4"/>
		<path class="st10" d="M14.7,8.2c-0.9-1.2-2.5-1.8-4.6-1.9v14.7c2.1,0,4.6-1.5,5.1-3.9c0.1-0.6,0.2-2.1,0.3-2.7
			C16,12.6,16,10,14.7,8.2"/>
		<path class="st54" d="M16.4,29.1c0,0-0.1,0-0.1,0.1H3.9c-0.1,0-0.2-0.1-0.2-0.1c0-4.7,2.2-6,3.3-6.4c0.6,0.3,1.6,0.8,1.9,0.9
			c0.3,0.1,0.7,0.4,1.2,0.4c0.5,0,1-0.3,1.7-0.5c0.6-0.2,1.2-0.5,1.6-0.7C14.5,23.3,16.4,24.8,16.4,29.1"/>
		<path class="st255" d="M15,29.2H5.1c0-0.5,0.1-1.4,0-2.5v-0.2c0-0.1,0-0.2,0-0.3c0-0.1,0-0.1,0-0.2c0-0.5-0.1-1-0.2-1.6
			c0.3-0.4,0.6-0.8,0.9-1c0,0,0.1-0.1,0.1-0.1c0.4-0.3,0.8-0.5,1.1-0.6c0.1,0,0.1,0,0.2-0.1c0.2-0.1,0.4-0.1,0.4-0.1
			c0.1,0,0.2,0,0.3-0.1c0,0,0,0,0,0c0,0,0.1-0.1,0.1-0.1c0,0,0,0,0.1,0.1c0.1,0.3,1.3,1.2,2.1,2c0.8-0.8,2-1.7,2.1-2
			c0-0.1,0-0.1,0.1-0.1c0,0,0.1,0.1,0.1,0.1c0,0,0,0,0,0c0.1,0.1,0.2,0.1,0.3,0.1c0,0,0.1,0,0.3,0.1c0,0,0.1,0,0.2,0.1
			c0.3,0.1,0.7,0.3,1.1,0.6c0,0,0.1,0,0.1,0.1c0.3,0.3,0.6,0.6,0.9,1C15.1,24.9,15,25.5,15,26c0,0.1,0,0.1,0,0.2c0,0.1,0,0.1,0,0.2
			v0.2C15,27.8,15,28.7,15,29.2"/>
		<polygon class="st256" points="7.6,25.1 7.6,25.1 7.6,25.1 6.9,24 6.3,23 5.7,24 5.1,25.1 5.1,25.1 5.1,25.1 5.1,25.1 5.1,25.1 
			5.7,26.2 6.3,27.3 6.9,26.2 7.6,25.1 7.6,25.1 		"/>
		<polygon class="st256" points="10.1,25.1 10.1,25.1 10.1,25.1 9.5,24 8.8,23 8.2,24 7.6,25.1 7.6,25.1 7.6,25.1 7.6,25.1 
			7.6,25.1 8.2,26.2 8.8,27.3 9.5,26.2 10.1,25.1 10.1,25.1 		"/>
		<polygon class="st256" points="12.6,25.1 12.6,25.1 12.6,25.1 12,24 11.3,23 10.7,24 10.1,25.1 10.1,25.1 10.1,25.1 10.1,25.1 
			10.1,25.1 10.7,26.2 11.3,27.3 12,26.2 12.6,25.1 12.6,25.1 		"/>
		<polygon class="st256" points="15.1,25.1 15.1,25.1 15.1,25.1 14.5,24 13.9,23 13.2,24 12.6,25.1 12.6,25.1 12.6,25.1 12.6,25.1 
			12.6,25.1 13.2,26.2 13.9,27.3 14.5,26.2 15.1,25.1 15.1,25.1 		"/>
		<polygon class="st256" points="7.4,29.2 5.2,29.2 5.7,28.4 6.3,27.3 6.9,28.4 		"/>
		<polygon class="st256" points="9.9,29.2 7.8,29.2 8.2,28.4 8.8,27.3 9.4,28.4 		"/>
		<polygon class="st256" points="12.4,29.2 10.3,29.2 10.7,28.4 11.3,27.3 12,28.4 		"/>
		<polygon class="st256" points="14.9,29.2 12.8,29.2 13.2,28.4 13.9,27.3 14.5,28.4 		"/>
		<path class="st54" d="M12.4,22.2c-0.1-0.2-0.3-0.5-0.4-0.7c-0.1-0.3-0.3-0.6-0.3-0.6c0,0.3-0.5,1.6-0.5,1.6s-1.5,1.6-1.2,1.6
			c0.2,0.1,1.3,0.6,1.6,0.9c0.3,0.4,0.3,0.7,0.3,0.2C12.1,24.8,12.7,22.8,12.4,22.2"/>
		<path class="st54" d="M8.9,22.6c0,0-0.5-1.3-0.5-1.6c0,0-0.1,0.3-0.3,0.6c-0.1,0.2-0.3,0.4-0.4,0.7c-0.2,0.6,0.3,2.7,0.4,3.1
			c0.1,0.5,0,0.2,0.3-0.2c0.3-0.4,1.4-0.9,1.6-0.9C10.3,24.1,8.9,22.6,8.9,22.6"/>
		<path class="st65" d="M15.4,4.5c-1.5-1.5-3.6-2.3-3.6-2.3l0.6,0.6c-0.4-0.3-1-0.7-2.1-1C8.8,1.3,7.8,1.8,7.8,1.8s0.8,0,1.2,0.3
			C8.6,2,7.9,1.9,6.8,2.4c-2.2,0.9-2.1,2.5-3.6,3c-1.5,0.5-2-0.1-2-0.1s0.7,1.1,1.9,1.1c0.2,0,0.2,0,0.2,0c0,0-0.4,1.2-0.5,2.1
			C2.6,9.3,2.9,9.9,3,11.7c0.1,1.5,0.5,0.7,0.9,1.8c0.2,0.4,0.2,0.8,0.2,0.8c0.2,0,0.6-0.9,0.3-2.5c-0.2-1,0.8-5,3.4-4.2
			c0.2,0.1,0.3,0.1,0.5,0.2c0.4,0.2,3.1,1.5,3.1,4.5c0,0,3.7-0.7,4.2-2.9c0.2,0.6,0.2,1.3,0.1,2.1c-0.2,2.7,0.2,2.6,0.2,2.6
			c0.1,0,0-0.7,0.4-1.2c0.4-0.5,1.1-2.1,1.1-3.8C17.4,7.5,16.9,6.1,15.4,4.5z"/>
		<path class="st234" d="M16.3,13c0-0.1-0.7-0.2-1.6-0.3c-0.8-0.1-2,0-2.5,0c-0.2,0-0.6,0.1-0.9,0.2c-0.4,0.1-0.8,0.2-0.9,0.3
			c-0.2,0-0.3,0-0.4,0v0c0,0,0,0,0,0c0,0,0,0,0,0v0c-0.1,0-0.3,0-0.4,0c-0.2,0-0.6-0.2-0.9-0.3c-0.4-0.1-0.7-0.2-0.9-0.2
			c-0.5-0.1-1.7-0.1-2.5,0c-0.9,0.1-1.6,0.2-1.6,0.3c0,0-0.1,0.7,0,0.8C3.7,13.9,3.9,14,4,14.2c0.1,0.2,0.3,1.9,0.9,2.3
			c0.9,0.7,4,0.8,4.5-1.9C9.4,14.3,9.5,14,9.7,14c0.1,0,0.2,0,0.3,0c0.1,0,0.2,0,0.3,0c0.2,0.1,0.3,0.3,0.3,0.7
			c0.5,2.7,3.6,2.7,4.5,1.9c0.6-0.5,0.8-2.1,0.9-2.3c0.1-0.2,0.3-0.4,0.4-0.4C16.4,13.7,16.3,13.1,16.3,13z M8.9,14.9
			c-0.5,2.1-2.8,1.9-3.3,1.7c-0.2-0.1-1-0.3-1.1-2.1c-0.1-1.2,0.5-1.3,1.3-1.4c0.7-0.1,1.3,0,1.7,0c0.4,0,1.3,0.2,1.4,0.6
			C8.9,14,9,14.4,8.9,14.9z M15.5,14.5c-0.1,1.7-0.8,2-1.1,2.1c-0.6,0.2-2.9,0.4-3.3-1.7c-0.1-0.5-0.1-0.8,0-1.2
			c0.1-0.3,1-0.5,1.4-0.6c0.4-0.1,1-0.1,1.7,0C15,13.2,15.5,13.3,15.5,14.5z"/>
	</g>
	<path class="st171" d="M11.6,17.7c-0.3-0.1-0.9-0.1-1.3-0.1v0c0,0-0.1,0-0.2,0c-0.1,0-0.2,0-0.2,0v0c-0.4,0-1,0-1.3,0.1
		c-0.5,0.2-0.7,0.8-1.3,1.3c0,0,0.8-0.1,1.3-0.3c0.5-0.2,0.6-0.4,1.3-0.6c0.1,0,0.1,0,0.2-0.1c0.1,0,0.1,0,0.2,0.1
		c0.7,0.2,0.8,0.4,1.3,0.6c0.5,0.2,1.3,0.3,1.3,0.3C12.3,18.6,12.1,17.9,11.6,17.7z"/>
</g>
</svg>
